<svg version="1.1" id="Layer_1" xmlns="http://www.w3.org/2000/svg" xmlns:xlink="http://www.w3.org/1999/xlink" x="0px" y="0px"
	 width="100%" viewBox="0 0 416 416" enable-background="new 0 0 416 416" xml:space="preserve">
<path fill="#000000" opacity="1.000000" stroke="none" 
	d="
M351.980835,265.100708 
	C358.864655,270.787231 366.047180,269.206970 373.085632,266.724579 
	C384.342590,262.754333 394.239807,256.254303 403.946533,249.447067 
	C405.602539,248.285721 407.056244,246.264725 409.608429,247.232681 
	C410.619415,249.145264 409.233765,250.105743 408.117676,250.980881 
	C396.517609,260.076721 384.274689,268.006775 369.904968,272.128204 
	C359.588135,275.087158 350.875916,272.780884 343.716705,264.669739 
	C337.359039,257.466797 332.799103,249.176575 328.792847,240.532761 
	C327.966858,238.750610 327.156097,236.961426 325.703644,233.789444 
	C317.597809,253.247650 309.186676,271.170959 305.339996,290.930695 
	C301.580566,291.454865 300.914368,288.924805 300.717041,286.097809 
	C300.383759,281.322662 302.063324,276.913208 303.467102,272.482330 
	C307.644135,259.297791 312.891937,246.504654 317.785034,233.581726 
	C318.614166,231.391937 320.396423,229.225662 317.108276,227.163193 
	C315.677002,226.265411 316.073273,223.771881 318.090363,224.074829 
	C322.065460,224.671890 322.461792,221.797348 323.436005,219.505737 
	C328.324402,208.006790 333.225311,196.515137 339.086395,185.466904 
	C340.565033,182.679596 341.947693,179.740082 344.502716,177.751541 
	C346.505676,176.192642 348.972626,175.895859 350.935364,177.621216 
	C352.962708,179.403336 350.834961,180.857071 349.949402,182.323212 
	C342.196167,195.159317 336.189301,208.815552 330.535736,222.356110 
	C331.903656,224.153183 333.382263,223.823288 334.589539,223.630310 
	C357.223511,220.012283 377.086945,211.427536 390.628510,191.821213 
	C393.094330,188.251053 395.010559,184.325363 395.674316,179.959015 
	C397.505707,167.911499 391.417603,159.020767 377.924683,154.036942 
	C363.332031,148.646912 348.272095,148.239502 333.124817,150.491776 
	C307.472015,154.306137 283.883392,163.319656 263.540924,179.764420 
	C253.753174,187.676788 245.145035,196.720123 239.832291,208.375992 
	C236.534317,215.611633 235.463455,223.008743 239.019226,230.555298 
	C239.722763,232.048447 240.631989,233.963638 238.397095,234.799026 
	C236.276962,235.591522 235.459808,233.528442 234.887436,232.082230 
	C231.491409,223.501434 231.756683,214.806580 234.760834,206.218643 
	C239.640381,192.269409 249.929077,182.501129 260.927917,173.451050 
	C283.853790,154.587128 310.566132,145.760025 339.916931,143.547729 
	C354.270966,142.465805 368.217285,143.414429 381.567413,148.850525 
	C404.158600,158.049530 409.635803,181.691299 393.565552,200.165070 
	C377.763763,218.330200 357.539429,227.564102 333.713104,229.341232 
	C332.902893,229.401672 332.096527,229.514145 330.176605,229.723724 
	C335.553528,242.992676 341.304108,255.282791 351.980835,265.100708 
z"/>
<path fill="#000000" opacity="1.000000" stroke="none" 
	d="
M33.922935,265.776337 
	C30.139576,279.420593 25.379480,292.459137 25.309605,306.540619 
	C20.552202,307.854980 18.301262,305.782776 18.340611,299.960968 
	C18.391792,292.388062 20.355724,285.162781 22.328461,277.940094 
	C24.432106,270.238068 26.414898,262.499176 28.710461,254.854462 
	C31.474401,245.649979 28.668240,238.549683 21.147503,232.974716 
	C19.604122,231.830627 17.187258,230.934189 18.146442,228.438004 
	C19.163109,225.792267 21.430716,226.998428 23.324278,227.426971 
	C23.648220,227.500290 23.980495,227.540497 24.310677,227.582047 
	C38.370731,229.351196 38.418514,229.312836 42.901775,215.953720 
	C48.834457,198.275650 54.908047,180.647797 61.577633,163.229843 
	C62.328545,161.268799 63.337097,159.308807 63.137676,156.355240 
	C58.205986,156.355240 53.440094,156.279083 48.677452,156.371124 
	C38.813011,156.561752 29.041832,155.865723 19.511724,153.188553 
	C16.975494,152.476089 14.419683,151.461746 12.203815,150.062073 
	C8.263087,147.572876 7.906484,143.770828 11.191245,139.835419 
	C17.688757,150.130219 28.520256,149.572006 38.606831,150.626511 
	C46.229939,151.423508 53.915924,151.004486 61.582581,150.843658 
	C64.887856,150.774307 66.858658,149.737534 67.892906,146.507812 
	C68.573135,144.383575 68.473267,140.891724 72.325371,141.925156 
	C75.945961,142.896484 76.748039,145.576859 75.793877,148.983154 
	C75.717300,149.256500 75.929901,149.610840 75.932953,149.623199 
	C84.101280,149.623199 92.202751,150.019119 100.252312,149.541077 
	C117.209747,148.534058 134.163391,147.767807 151.152924,147.608231 
	C158.473022,147.539474 165.791672,146.865952 172.984375,148.780334 
	C176.045441,149.595047 179.074631,150.517471 181.617493,152.550095 
	C183.587250,154.124634 184.625961,156.117020 184.260315,158.655762 
	C183.959930,160.741318 182.674789,162.076111 180.972656,160.216797 
	C176.175278,154.976349 169.738678,155.056915 163.530457,154.266357 
	C151.069061,152.679504 138.619446,153.579773 126.134392,154.143402 
	C109.998825,154.871826 93.835007,154.991821 77.681908,155.297272 
	C75.043777,155.347168 72.905525,155.502945 71.741402,158.535446 
	C63.388435,180.294617 55.264194,202.133041 48.141453,224.331985 
	C47.897701,225.091675 47.850792,225.914520 47.632275,227.164917 
	C53.880760,226.869110 59.824768,226.730759 65.744720,226.277939 
	C78.394386,225.310349 91.056480,225.653259 103.710945,225.832260 
	C108.047417,225.893585 108.823334,227.654800 107.329056,231.761581 
	C91.658722,230.400909 76.060905,231.341599 60.468426,231.709305 
	C58.141739,231.764175 55.823109,232.121796 53.495979,232.203720 
	C44.356125,232.525513 45.894314,231.036179 42.777714,239.890060 
	C39.794163,248.365936 36.962067,256.895111 33.922935,265.776337 
M35.896847,236.440430 
	C36.541000,232.053146 35.537266,231.558350 28.750227,233.233963 
	C30.495434,235.864426 32.159061,238.371918 34.163925,241.393738 
	C34.824158,239.553925 35.260960,238.336716 35.896847,236.440430 
z"/>
<path fill="#000000" opacity="1.000000" stroke="none" 
	d="
M224.539429,191.873352 
	C221.995941,186.763641 209.674377,185.080368 206.870087,189.638184 
	C201.149139,198.936432 196.203888,208.711945 191.267166,217.693924 
	C192.108078,219.810822 193.269165,219.708557 194.148727,220.089767 
	C195.764389,220.789963 198.078857,220.676437 198.456070,222.936386 
	C198.859192,225.351379 196.773117,226.323608 195.173721,227.485825 
	C195.039200,227.583588 194.903168,227.713593 194.750107,227.746658 
	C182.240891,230.448700 178.394547,241.212524 173.330215,250.813446 
	C171.408478,254.456680 169.662338,258.192535 167.169693,263.234192 
	C174.592361,261.512787 180.371445,259.431946 185.561752,255.792221 
	C191.966705,251.300735 189.462585,245.081909 187.307327,238.591537 
	C194.856918,241.956848 195.896973,252.623703 190.455490,258.339233 
	C184.628433,264.459747 176.849686,266.641602 168.945099,267.981720 
	C165.228638,268.611816 163.425110,270.306824 162.142227,273.509247 
	C159.665390,279.692047 156.986374,285.793823 154.391861,291.929443 
	C153.637970,293.712280 153.314026,296.241821 150.535126,295.490082 
	C147.683563,294.718689 147.172302,292.121521 147.953049,289.816162 
	C149.337662,285.727661 151.257446,281.820953 152.940155,277.832642 
	C154.095215,275.094940 155.228043,272.347870 156.218872,269.969666 
	C155.565216,268.159973 154.195526,268.148651 153.233536,267.582611 
	C146.862442,263.833557 145.445648,258.166199 149.680847,251.968521 
	C154.994751,244.192291 162.707214,239.130173 170.695587,234.605774 
	C175.448639,231.913757 178.843887,228.502792 180.311600,222.972046 
	C176.970993,220.775558 173.006851,220.759628 169.449951,219.559921 
	C165.013214,218.063446 160.824066,216.326385 159.838943,211.200531 
	C158.806213,205.826889 161.553558,201.907257 165.606644,198.754822 
	C174.347855,191.956009 184.527252,188.219971 195.112747,185.785034 
	C201.004486,184.429779 204.804901,181.635880 207.224136,176.102264 
	C210.089706,169.547745 213.512436,163.232376 216.816727,156.877319 
	C217.620453,155.331573 217.631302,152.094620 220.506012,153.362717 
	C223.233551,154.565887 222.481552,157.216019 221.432922,159.455673 
	C218.607697,165.489639 215.740341,171.503906 212.924393,177.542145 
	C212.447021,178.565720 212.141663,179.669510 211.618378,181.120026 
	C214.769913,181.721756 217.685059,182.095428 220.496765,182.853043 
	C226.482712,184.465973 229.227921,189.154282 227.490952,195.097885 
	C225.012695,203.578125 219.111313,208.905136 210.964111,211.820831 
	C208.407486,212.735825 206.068298,212.306732 204.684250,208.794357 
	C213.732208,206.072693 220.915787,201.203430 224.539429,191.873352 
M163.728546,210.000122 
	C168.327118,216.584595 175.858719,215.940430 182.464417,217.445465 
	C184.097580,217.817566 184.775070,215.801682 185.498138,214.527679 
	C187.959686,210.190613 190.476379,205.880066 192.776947,201.457932 
	C194.570953,198.009567 197.373001,195.013519 198.143860,189.890930 
	C186.357925,193.704575 174.951736,196.474808 165.819626,204.488403 
	C164.466446,205.675842 163.550415,207.360123 163.728546,210.000122 
M160.074982,248.574921 
	C157.392548,251.297089 154.463150,253.815414 152.708542,257.314148 
	C151.678268,259.368561 150.960205,261.552246 153.489822,262.968811 
	C155.838699,264.284180 158.388428,264.634308 159.959137,261.753723 
	C163.806442,254.697968 167.530167,247.574814 171.303619,240.478790 
	C167.027191,242.397491 163.600128,244.978271 160.074982,248.574921 
z"/>
</svg>